# xmcd
#
# Track frame offsets:
#	150
#	18090
#	39027
#	56427
#	83380
#	105182
#	123915
#	142840
#	168427
#	193452
#	211537
#	237887
#	258665
#	281780
#	311662
#	324140
#	338152
#
# Disc length: 4797 seconds
#
# Revision: 1
# Processed by: cddbd v1.5PL3 Copyright (c) Steve Scherf et al.
# Submitted via: CDex 1.50Beta5
#
DISCID=d412bb11
DTITLE=Compilation Album - Disco Fever
DYEAR=1900
DGENRE=Electronic
TTITLE0=Cherish
TTITLE1=I Like It
TTITLE2=I've Never Been To Me
TTITLE3=I'm Not In Love
TTITLE4=You Make Me Feel Brand New
TTITLE5=Just The Way You Are
TTITLE6=Special Lady
TTITLE7=Reunited
TTITLE8=I Miss You
TTITLE9=Being With You
TTITLE10=Street Life
TTITLE11=A Song For You
TTITLE12=In The Rain
TTITLE13=Three Times A Lady
TTITLE14=It's A Man's Man's Man's World
TTITLE15=You Are Everything
TTITLE16=Mary Jane
EXTD=
EXTT0=
EXTT1=
EXTT2=
EXTT3=
EXTT4=
EXTT5=
EXTT6=
EXTT7=
EXTT8=
EXTT9=
EXTT10=
EXTT11=
EXTT12=
EXTT13=
EXTT14=
EXTT15=
EXTT16=
PLAYORDER=
